<?xml version="1.0" encoding="utf-8"?><!-- Uploaded to: SVG Repo, www.svgrepo.com, Generator: SVG Repo Mixer Tools -->
<svg width="800px" height="800px" viewBox="0 0 24 24" fill="none" xmlns="http://www.w3.org/2000/svg">
<path d="M12.8432 18.1568C14.5559 19.0188 16.5723 19.6404 18.9375 19.9063C19.5115 19.9709 20 19.511 20 18.9334V16.7808C20 16.3219 19.6877 15.9219 19.2425 15.8106L16.5493 15.1373C16.2085 15.0521 15.848 15.152 15.5996 15.4004L12.8432 18.1568ZM12.8432 18.1568C9.72749 16.5888 7.61705 14.225 6.24117 11.7588M6.24117 11.7588C4.93032 9.40926 4.28622 6.96674 4.07481 5.03084C4.01343 4.46884 4.46855 4 5.03389 4H7.1802C7.65688 4 8.06729 4.33646 8.16078 4.80388L8.89504 8.47521C8.96061 8.80307 8.85799 9.14201 8.62157 9.37843L6.24117 11.7588Z" stroke="#000000" stroke-width="2"/>
<path d="M14 10H18M14 10V6M14 10L20 4" stroke="#000000" stroke-width="2" stroke-linecap="round"/>
</svg>